<svg width="512" height="512" viewBox="0 0 512 512" fill="none" xmlns="http://www.w3.org/2000/svg">
<g clip-path="url(#clip0)">
<path d="M255.88 138.796C247.954 138.796 240.29 140.516 233.609 143.515V122.092C233.609 112.867 226.13 105.389 216.906 105.389C207.682 105.389 200.202 112.868 200.202 122.092V167.736C143.41 135.042 72.65 129.358 11.147 155.123C10.785 155.274 10.443 155.374 10.081 155.527C-4.07403 161.558 -2.92703 181.638 11.035 186.634C38.147 196.336 62.983 230.539 58.299 258.95C57.303 264.986 59.69 271.076 64.507 274.838C69.341 278.601 75.339 277.364 81.435 276.992C108.727 275.325 147.069 298.424 147.39 325.765C147.462 331.871 148.778 337.891 153.595 341.653C158.429 345.416 164.932 346.231 170.521 343.807C198.117 331.834 225.689 373.645 241.967 398.942C245.039 403.716 250.33 406.609 256.011 406.609C261.688 406.609 266.978 403.716 270.05 398.942C286.329 373.645 313.9 331.834 341.496 343.807C347.086 346.232 353.588 345.416 358.422 341.653C363.239 337.89 364.554 331.87 364.626 325.765C364.949 298.424 403.289 275.325 430.581 276.992C436.678 277.364 442.673 278.601 447.507 274.838C452.324 271.075 454.706 264.985 453.711 258.95C449.027 230.537 473.854 196.335 500.967 186.634C514.929 181.637 516.059 161.559 501.905 155.527C501.544 155.373 501.102 155.275 500.74 155.123C439.238 129.358 368.344 135.041 311.552 167.736V122.092C311.552 112.867 304.073 105.389 294.849 105.389C285.624 105.389 278.146 112.868 278.146 122.092V143.515C271.47 140.517 263.806 138.796 255.88 138.796Z" fill="#5C5C5C"/>
<path d="M501.911 155.527C501.55 155.373 501.108 155.275 500.746 155.124C439.244 129.359 368.35 135.042 311.558 167.737V122.093C311.558 112.868 304.079 105.39 294.854 105.39C285.629 105.39 278.151 112.869 278.151 122.093V143.516C271.47 140.517 263.806 138.797 255.88 138.797V406.603C255.926 406.603 255.97 406.607 256.016 406.607C261.693 406.607 266.983 403.714 270.055 398.94C286.334 373.643 313.905 331.832 341.501 343.805C347.091 346.23 353.593 345.414 358.427 341.651C363.244 337.888 364.559 331.868 364.631 325.763C364.954 298.422 403.294 275.323 430.586 276.99C436.683 277.362 442.678 278.599 447.512 274.836C452.329 271.073 454.711 264.983 453.716 258.948C449.032 230.535 473.859 196.333 500.972 186.632C514.934 181.638 516.066 161.559 501.911 155.527Z" fill="#3E3D42"/>
</g>
<defs>
<clipPath id="clip0">
<rect width="512" height="512" fill="white"/>
</clipPath>
</defs>
</svg>
