<svg xmlns="http://www.w3.org/2000/svg" width="512" height="512" fill="none" viewBox="0 0 512 512"><path fill="#FFDA44" d="M453.889 311.652H58.111L35.729 366.08C30.609 378.435 27.826 392.014 27.826 406.261C27.826 464.696 75.13 512 133.565 512H378.435C436.87 512 484.174 464.696 484.174 406.261C484.174 392.014 481.391 378.435 476.271 366.08L453.889 311.652Z"/><path fill="#EEBF00" d="M453.889 311.652H256V512H378.435C436.87 512 484.174 464.696 484.174 406.261C484.174 392.014 481.391 378.435 476.271 366.08L453.889 311.652Z"/><path fill="#FF5023" d="M385.234 144.696H126.765L51.246 328.348H460.754L385.234 144.696Z"/><path fill="#CD2A00" d="M256 328.348H460.754L385.234 144.696H256V328.348Z"/><path fill="#E0E0E2" d="M392.1 161.391L353.837 65.558C338.031 27.047 300.188 0 256 0C211.812 0 173.969 29.83 158.163 68.341L119.899 161.391H392.1Z"/><path fill="#C6C5CA" d="M392.1 161.391L353.837 65.558C338.031 27.047 300.188 0 256 0V161.391H392.1Z"/></svg>