<svg width="512" height="512" viewBox="0 0 512 512" fill="none" xmlns="http://www.w3.org/2000/svg">
<g clip-path="url(#clip0)">
<path d="M83.4781 512C111.14 512 133.565 489.575 133.565 461.913C133.565 434.251 111.14 411.826 83.4781 411.826C55.8158 411.826 33.3911 434.251 33.3911 461.913C33.3911 489.575 55.8158 512 83.4781 512Z" fill="#FF9811"/>
<path d="M83.478 411.826V512C111.136 511.996 133.557 489.573 133.557 461.913C133.557 434.253 111.136 411.831 83.478 411.826Z" fill="#EE8700"/>
<path d="M428.511 512C456.173 512 478.598 489.575 478.598 461.913C478.598 434.251 456.173 411.826 428.511 411.826C400.849 411.826 378.424 434.251 378.424 461.913C378.424 489.575 400.849 512 428.511 512Z" fill="#FF9811"/>
<path d="M428.522 411.826V512C456.18 511.996 478.601 489.573 478.601 461.913C478.601 434.253 456.18 411.831 428.522 411.826Z" fill="#EE8700"/>
<path d="M82.4361 150.261C51.8201 188.379 33.3911 236.693 33.3911 289.391C33.3911 412.335 133.057 512 256 512C378.943 512 478.609 412.335 478.609 289.391C478.609 236.693 460.18 188.379 429.564 150.261H82.4361Z" fill="#806749"/>
<path d="M256 150.261V512C378.943 512 478.609 412.335 478.609 289.391C478.609 236.693 460.18 188.379 429.564 150.261H256Z" fill="#5F4D37"/>
<path d="M392.395 279.423C382.96 278.695 375.379 286.14 374.971 295.358C372.156 358.521 320.45 410.516 257.253 412.852C248.041 413.189 240.846 420.939 241.187 430.156C241.519 439.156 248.926 446.232 257.86 446.232C258.067 446.232 258.279 446.232 258.49 446.221C338.925 443.242 404.745 377.248 408.327 296.835C408.737 287.629 401.606 279.825 392.395 279.423Z" fill="#C0AB91"/>
<path d="M340.993 150.261L429.197 62.0569C435.717 55.5369 435.717 44.9659 429.197 38.4459C422.677 31.9259 412.106 31.9259 405.586 38.4459L293.77 150.261H340.993Z" fill="#FF9811"/>
<path d="M461.913 166.957H50.0871C40.8671 166.957 33.3911 159.482 33.3911 150.261C33.3911 141.041 40.8661 133.565 50.0871 133.565H461.913C471.133 133.565 478.609 141.04 478.609 150.261C478.609 159.481 471.133 166.957 461.913 166.957Z" fill="#A0815C"/>
<path d="M250.435 100.174C259.656 100.174 267.131 92.6989 267.131 83.478C267.131 74.257 259.656 66.782 250.435 66.782C241.214 66.782 233.739 74.257 233.739 83.478C233.739 92.6989 241.214 100.174 250.435 100.174Z" fill="#64C37D"/>
<path d="M294.957 44.5219C304.178 44.5219 311.653 37.0468 311.653 27.8259C311.653 18.6049 304.178 11.1299 294.957 11.1299C285.736 11.1299 278.261 18.6049 278.261 27.8259C278.261 37.0468 285.736 44.5219 294.957 44.5219Z" fill="#64C37D"/>
<path d="M150.261 0C122.641 0 100.174 22.467 100.174 50.087C100.174 77.707 122.641 100.174 150.261 100.174C177.881 100.174 200.348 77.706 200.348 50.087C200.348 22.468 177.88 0 150.261 0ZM150.261 66.783C141.041 66.783 133.565 59.308 133.565 50.087C133.565 40.866 141.04 33.391 150.261 33.391C159.482 33.391 166.957 40.866 166.957 50.087C166.957 59.308 159.481 66.783 150.261 66.783Z" fill="#64C37D"/>
</g>
<defs>
<clipPath id="clip0">
<rect width="512" height="512" fill="white"/>
</clipPath>
</defs>
</svg>
