<svg xmlns="http://www.w3.org/2000/svg" width="512" height="512" fill="none" viewBox="0 0 512 512"><path fill="#91DC5A" d="M100.174 189.217C100.174 137.534 125.569 91.78 164.424 63.416C155.293 27.129 122.651 0 83.478 0C37.375 0 0 37.374 0 83.478C0 101.547 5.8 118.227 15.556 131.89C5.915 142.712 0 156.921 0 172.522C0 206.277 27.468 233.881 61.217 233.881C63.096 233.881 64.947 233.74 66.782 233.74H100.173V189.217H100.174Z"/><path fill="#6DC82A" d="M411.826 189.217C411.826 137.534 386.431 91.78 347.576 63.416C356.707 27.129 389.349 0 428.522 0C474.626 0 512 37.374 512 83.478C512 101.547 506.2 118.227 496.444 131.89C506.085 142.712 512 156.921 512 172.522C512 206.277 484.532 233.881 450.783 233.881C448.904 233.881 447.053 233.74 445.218 233.74H411.827V189.217H411.826Z"/><path fill="#E0E0E2" d="M256.001 0C151.497 0 66.783 84.715 66.783 189.217V322.782C66.783 427.285 151.497 512 256 512H256.001C360.502 512 445.217 427.285 445.217 322.783V189.217C445.217 84.715 360.503 0 256.001 0Z"/><path fill="#C6C5CA" d="M445.217 322.783V189.217C445.217 84.715 360.626 0 256 0V512C360.626 512 445.217 427.285 445.217 322.783Z"/><path fill="#FF5023" d="M256 445.217C188.489 445.217 133.565 390.293 133.565 322.782C133.565 313.565 141.044 306.086 150.261 306.086C159.478 306.086 166.957 313.565 166.957 322.782C166.957 371.879 206.903 411.825 256 411.825C305.097 411.825 345.043 371.879 345.043 322.782C345.043 313.565 352.522 306.086 361.739 306.086C370.956 306.086 378.435 313.565 378.435 322.782C378.435 390.293 323.511 445.217 256 445.217Z"/><path fill="#CD2A00" d="M361.739 306.087C352.522 306.087 345.043 313.566 345.043 322.783C345.043 371.88 304.973 411.826 256 411.826V445.217C323.896 445.217 378.435 390.293 378.435 322.782C378.435 313.565 370.956 306.087 361.739 306.087Z"/><path fill="#806749" d="M183.652 133.565C156.033 133.565 133.565 156.033 133.565 183.652C133.565 205.389 147.565 223.748 166.956 230.662V250.434C166.956 259.654 174.431 267.13 183.652 267.13C192.872 267.13 200.348 259.655 200.348 250.434V230.662C219.739 223.748 233.739 205.389 233.739 183.652C233.739 156.033 211.271 133.565 183.652 133.565Z"/><path fill="#fff" d="M183.652 200.348C192.873 200.348 200.348 192.873 200.348 183.652C200.348 174.431 192.873 166.956 183.652 166.956C174.431 166.956 166.956 174.431 166.956 183.652C166.956 192.873 174.431 200.348 183.652 200.348Z"/><path fill="#5F4D37" d="M378.435 183.652C378.435 156.033 355.967 133.565 328.348 133.565C300.729 133.565 278.261 156.033 278.261 183.652C278.261 205.389 292.261 223.748 311.652 230.662V250.434C311.652 259.654 319.127 267.13 328.348 267.13C337.569 267.13 345.044 259.655 345.044 250.434V230.662C364.435 223.748 378.435 205.389 378.435 183.652Z"/><path fill="#fff" d="M328.348 200.348C337.569 200.348 345.044 192.873 345.044 183.652C345.044 174.431 337.569 166.956 328.348 166.956C319.127 166.956 311.652 174.431 311.652 183.652C311.652 192.873 319.127 200.348 328.348 200.348Z"/><path fill="#FF5023" d="M256 356.174C280.589 356.174 300.522 336.241 300.522 311.652C300.522 287.063 280.589 267.13 256 267.13C231.411 267.13 211.478 287.063 211.478 311.652C211.478 336.241 231.411 356.174 256 356.174Z"/><path fill="#CD2A00" d="M256 267.13V356.173C280.487 356.173 300.521 336.24 300.521 311.651C300.521 287.062 280.487 267.132 256 267.13Z"/></svg>