<svg xmlns="http://www.w3.org/2000/svg" width="512" height="512" fill="none" viewBox="0 0 512 512"><path fill="#ACABB1" d="M411.826 200.348V333.913H445.217C482.1 333.913 512 304.013 512 267.13V217.043C512 207.823 504.525 200.347 495.304 200.347H411.826V200.348Z"/><path fill="#ACABB1" d="M0 217.043V267.13C0 304.013 29.9 333.913 66.783 333.913H100.174V200.348H16.696C7.475 200.348 0 207.823 0 217.043Z"/><path fill="#E0E0E2" d="M256 0C151.497 0 66.783 84.715 66.783 189.216V322.782C66.783 427.285 151.497 512 256 512C360.503 512 445.217 427.285 445.217 322.783V189.216C445.217 84.715 360.503 0 256 0Z"/><path fill="#C6C5CA" d="M445.217 322.783V189.216C445.217 84.715 360.503 0 256 0V512C360.503 512 445.217 427.285 445.217 322.783Z"/><path fill="#FF5023" d="M233.739 250.435C233.739 222.816 211.271 200.348 183.652 200.348C156.033 200.348 133.565 222.816 133.565 250.435C133.565 278.054 156.033 300.522 183.652 300.522C211.271 300.522 233.739 278.054 233.739 250.435Z"/><path fill="#fff" d="M183.652 267.131C192.873 267.131 200.348 259.656 200.348 250.435C200.348 241.214 192.873 233.739 183.652 233.739C174.431 233.739 166.956 241.214 166.956 250.435C166.956 259.656 174.431 267.131 183.652 267.131Z"/><path fill="#CD2A00" d="M328.348 200.348C300.729 200.348 278.261 222.816 278.261 250.435C278.261 278.054 300.729 300.522 328.348 300.522C355.967 300.522 378.435 278.054 378.435 250.435C378.435 222.816 355.967 200.348 328.348 200.348Z"/><path fill="#fff" d="M328.348 267.131C337.569 267.131 345.044 259.656 345.044 250.435C345.044 241.214 337.569 233.739 328.348 233.739C319.127 233.739 311.652 241.214 311.652 250.435C311.652 259.656 319.127 267.131 328.348 267.131Z"/><path fill="#5C5C5C" d="M256 0C151.497 0 66.783 84.715 66.783 189.216V194.782H83.479C92.696 194.782 100.175 187.303 100.175 178.086C100.175 141.26 130.131 100.173 166.958 100.173C203.785 100.173 233.741 130.129 233.741 166.956C233.741 179.251 243.707 189.217 256.002 189.217C268.297 189.217 278.263 179.251 278.263 166.956C278.263 130.13 308.219 100.173 345.046 100.173C381.873 100.173 411.829 141.26 411.829 178.086C411.829 187.303 419.308 194.782 428.525 194.782H445.221V189.216C445.217 84.715 360.503 0 256 0Z"/><path fill="#3E3D42" d="M256 0V189.217C268.295 189.217 278.261 179.251 278.261 166.956C278.261 130.13 308.217 100.173 345.044 100.173C381.871 100.173 411.827 141.26 411.827 178.086C411.827 187.303 419.306 194.782 428.523 194.782H445.219V189.216C445.217 84.715 360.503 0 256 0Z"/><path fill="#fff" d="M328.348 378.435H183.652C174.432 378.435 166.956 385.91 166.956 395.131C166.956 404.351 174.431 411.827 183.652 411.827H200.348V428.523C200.348 437.743 207.823 445.219 217.044 445.219C226.264 445.219 233.74 437.744 233.74 428.523V411.827H278.262V428.523C278.262 437.743 285.737 445.219 294.958 445.219C304.179 445.219 311.654 437.744 311.654 428.523V411.827H328.35C337.57 411.827 345.046 404.352 345.046 395.131C345.043 385.91 337.568 378.435 328.348 378.435Z"/></svg>