<svg xmlns="http://www.w3.org/2000/svg" width="512" height="512" fill="none" viewBox="0 0 512 512"><path fill="#2D2D30" d="M495.305 200.348H428.522V233.739H495.305V200.348Z"/><path fill="#2D2D30" d="M83.479 200.348H16.696V233.739H83.479V200.348Z"/><path fill="#57565C" d="M495.304 267.13C486.084 267.13 478.608 259.655 478.608 250.434V183.651C478.608 174.431 486.083 166.955 495.304 166.955C504.524 166.955 512 174.43 512 183.651V250.434C512 259.655 504.525 267.13 495.304 267.13Z"/><path fill="#57565C" d="M16.696 267.13C25.916 267.13 33.392 259.655 33.392 250.434V183.651C33.392 174.431 25.917 166.955 16.696 166.955C7.475 166.957 0 174.432 0 183.652V250.435C0 259.655 7.475 267.13 16.696 267.13Z"/><path fill="#91DC5A" d="M66.783 83.478V365.973C66.783 446.622 151.497 512 256 512H256.001C360.501 512 445.217 446.622 445.217 365.973V83.478H66.783Z"/><path fill="#6DC82A" d="M256 512C360.501 512 445.217 446.622 445.217 365.973V83.478H256V512Z"/><path fill="#806749" d="M66.783 116.87H445.218V16.696C445.218 7.476 437.743 0 428.522 0H83.478C74.258 0 66.782 7.475 66.782 16.696V116.87H66.783Z"/><path fill="#5F4D37" d="M256 116.87H445.217V16.696C445.217 7.476 437.742 0 428.521 0H256V116.87Z"/><path fill="#57565C" d="M335.026 411.826H179.2C169.98 411.826 162.504 404.351 162.504 395.13C162.504 385.91 169.979 378.434 179.2 378.434H335.026C344.246 378.434 351.722 385.909 351.722 395.13C351.722 404.351 344.247 411.826 335.026 411.826Z"/><path fill="#3E3D42" d="M335.026 378.435H256V411.826H335.026C344.246 411.826 351.722 404.351 351.722 395.13C351.722 385.91 344.247 378.435 335.026 378.435Z"/><path fill="#787680" d="M217.043 445.217C207.823 445.217 200.347 437.742 200.347 428.521V361.738C200.347 352.518 207.822 345.042 217.043 345.042C226.263 345.042 233.739 352.517 233.739 361.738V428.521C233.739 437.742 226.264 445.217 217.043 445.217Z"/><path fill="#787680" d="M294.957 445.217C285.737 445.217 278.261 437.742 278.261 428.521V361.738C278.261 352.518 285.736 345.042 294.957 345.042C304.177 345.042 311.653 352.517 311.653 361.738V428.521C311.652 437.742 304.177 445.217 294.957 445.217Z"/><path fill="#fff" d="M100.174 217.043V232.744C100.174 269.447 129.37 300.041 166.071 300.516C203.36 300.999 233.74 270.917 233.74 233.739V217.043C233.74 207.823 226.265 200.347 217.044 200.347H116.87C107.649 200.348 100.174 207.823 100.174 217.043Z"/><path fill="#fff" d="M278.261 217.043V232.744C278.261 269.447 307.457 300.041 344.158 300.516C381.447 300.999 411.827 270.917 411.827 233.739V217.043C411.827 207.823 404.352 200.347 395.131 200.347H294.957C285.736 200.348 278.261 207.823 278.261 217.043Z"/></svg>