<svg xmlns="http://www.w3.org/2000/svg" width="512" height="512" fill="none" viewBox="0 0 512 512"><g clip-path="url(#clip0)"><path fill="#E0E0E2" d="M201.117 507.118L256 444.457L310.883 507.118C317.392 513.627 327.945 513.627 334.454 507.118L389.338 444.457L427.554 490.451C438.053 500.95 456.007 493.514 456.007 478.665V201.719C456.006 91.5121 365.84 -0.196927 255.633 7.26511e-05C145.341 0.198073 55.994 89.6671 55.994 200.006V478.666C55.994 493.515 73.947 500.951 84.447 490.452L122.663 444.457L177.546 507.118C184.056 513.627 194.608 513.627 201.117 507.118Z"/><path fill="#C6C5CA" d="M334.454 507.118L389.337 444.457L427.553 490.451C438.052 500.95 456.006 493.514 456.006 478.665V200.006C456.006 89.545 366.461 0 256 0V444.457L310.883 507.118C317.393 513.627 327.945 513.627 334.454 507.118Z"/><path fill="#5D5D5D" d="M339.336 166.672C366.909 166.672 389.337 189.102 389.337 216.673C389.337 244.244 366.909 266.674 339.336 266.674C311.764 266.674 289.335 244.244 289.335 216.673C289.335 189.102 311.764 166.672 339.336 166.672Z"/><path fill="#5D5D5D" d="M172.664 166.672C200.236 166.672 222.665 189.102 222.665 216.673C222.665 244.244 200.235 266.674 172.664 266.674C145.091 266.674 122.663 244.244 122.663 216.673C122.663 189.102 145.092 166.672 172.664 166.672Z"/></g><defs><clipPath id="clip0"><rect width="512" height="512" fill="#fff"/></clipPath></defs></svg>