<svg xmlns="http://www.w3.org/2000/svg" width="512" height="512" fill="none" viewBox="0 0 512 512"><g clip-path="url(#clip0)"><path fill="#FFDA44" d="M506.298 202.547C502.659 185.499 478.408 184.8 473.852 201.679C458.503 258.499 406.597 300.565 345.044 300.522C271.453 300.509 211.492 240.668 211.479 166.957C211.437 105.401 253.503 53.499 310.319 38.149C327.149 33.603 326.548 9.35 309.45 5.703C292.244 2.03 274.371 -0.000999631 256 3.691e-07C114.796 0.0310004 0.031 114.79 0 256C0.031 397.21 114.796 511.969 256 512C397.204 511.969 511.969 397.21 512 256C512.001 237.628 509.971 219.756 506.298 202.547Z"/><path fill="#EEBF00" d="M495.304 211.478C495.304 204.228 494.84 197.093 494.067 190.047C485.97 188.079 476.528 191.762 473.851 201.678C458.502 258.498 406.596 300.563 345.043 300.521C271.452 300.508 211.491 240.667 211.478 166.956C211.436 105.399 253.502 53.4981 310.318 38.1481C320.207 35.4771 323.913 26.0341 321.954 17.9331C314.91 17.1611 307.773 16.6951 300.521 16.6951C192.945 16.6951 105.738 103.902 105.738 211.478C105.738 319.054 192.945 406.261 300.521 406.261C408.097 406.261 495.304 319.054 495.304 211.478Z"/></g><defs><clipPath id="clip0"><rect width="512" height="512" fill="#fff"/></clipPath></defs></svg>