<svg xmlns="http://www.w3.org/2000/svg" width="512" height="512" fill="none" viewBox="0 0 512 512"><path fill="#E0E0E2" d="M256.001 0C151.497 0 66.783 84.715 66.783 189.216V322.782C66.783 427.285 151.497 512 256 512H256.001C360.502 512 445.217 427.285 445.217 322.783V189.216C445.217 84.715 360.503 0 256.001 0Z"/><path fill="#C6C5CA" d="M256.001 512C360.502 512 445.217 427.285 445.217 322.783V189.216C445.217 84.715 360.503 0 256.001 0H256L256.001 512Z"/><path fill="#5D5D5D" d="M233.739 250.435C233.739 222.816 211.271 200.348 183.652 200.348C156.033 200.348 133.565 222.816 133.565 250.435C133.565 278.054 156.033 300.522 183.652 300.522C211.271 300.522 233.739 278.054 233.739 250.435Z"/><path fill="#5D5D5D" d="M328.348 200.348C300.729 200.348 278.261 222.816 278.261 250.435C278.261 278.054 300.729 300.522 328.348 300.522C355.967 300.522 378.435 278.054 378.435 250.435C378.435 222.816 355.967 200.348 328.348 200.348Z"/><path fill="#5D5D5D" d="M217.043 367.305C226.264 367.305 233.739 359.83 233.739 350.609C233.739 341.388 226.264 333.913 217.043 333.913C207.822 333.913 200.347 341.388 200.347 350.609C200.347 359.83 207.822 367.305 217.043 367.305Z"/><path fill="#5D5D5D" d="M217.043 434.087C226.264 434.087 233.739 426.612 233.739 417.391C233.739 408.17 226.264 400.695 217.043 400.695C207.822 400.695 200.347 408.17 200.347 417.391C200.347 426.612 207.822 434.087 217.043 434.087Z"/><path fill="#5D5D5D" d="M294.957 367.305C304.178 367.305 311.653 359.83 311.653 350.609C311.653 341.388 304.178 333.913 294.957 333.913C285.736 333.913 278.261 341.388 278.261 350.609C278.261 359.83 285.736 367.305 294.957 367.305Z"/><path fill="#5D5D5D" d="M199.235 111.305C208.456 111.305 215.931 103.83 215.931 94.6091C215.931 85.3881 208.456 77.9131 199.235 77.9131C190.014 77.9131 182.539 85.3881 182.539 94.6091C182.539 103.83 190.014 111.305 199.235 111.305Z"/><path fill="#5D5D5D" d="M299.409 111.305C308.63 111.305 316.105 103.83 316.105 94.6091C316.105 85.3881 308.63 77.9131 299.409 77.9131C290.188 77.9131 282.713 85.3881 282.713 94.6091C282.713 103.83 290.188 111.305 299.409 111.305Z"/><path fill="#5D5D5D" d="M294.957 434.087C304.178 434.087 311.653 426.612 311.653 417.391C311.653 408.17 304.178 400.695 294.957 400.695C285.736 400.695 278.261 408.17 278.261 417.391C278.261 426.612 285.736 434.087 294.957 434.087Z"/><path fill="#806749" d="M83.478 333.913H16.696C7.473 333.913 0 326.435 0 317.217V217.043C0 207.826 7.473 200.347 16.696 200.347H83.479C92.702 200.347 100.175 207.826 100.175 217.043V317.217C100.174 326.435 92.701 333.913 83.478 333.913Z"/><path fill="#806749" d="M495.304 333.913H428.521C419.298 333.913 411.825 326.434 411.825 317.217V217.043C411.825 207.826 419.298 200.347 428.521 200.347H495.304C504.527 200.347 512 207.826 512 217.043V317.217C512 326.435 504.527 333.913 495.304 333.913Z"/><path fill="#5F4D37" d="M495.304 333.913C499.915 333.913 504.089 332.043 507.11 329.021C510.131 325.999 512 321.826 512 317.217V267.13V217.043C512 212.434 510.132 208.26 507.11 205.239C504.088 202.218 499.915 200.347 495.304 200.347H461.913V333.912H495.304V333.913Z"/><path fill="#5F4D37" d="M83.478 333.913C88.089 333.913 92.263 332.043 95.284 329.021C98.305 325.999 100.174 321.826 100.174 317.217V267.13V217.043C100.174 212.434 98.306 208.26 95.284 205.239C92.262 202.218 88.089 200.347 83.478 200.347H50.087V333.912H83.478V333.913Z"/><path fill="#FF5023" d="M299.674 151.565C297.957 147.402 293.892 144.695 289.392 144.695H222.609C218.109 144.695 214.044 147.402 212.327 151.565C210.598 155.728 211.556 160.511 214.74 163.695L248.131 197.086C250.305 199.26 253.153 200.347 256 200.347C258.847 200.347 261.695 199.26 263.869 197.086L297.26 163.695C300.446 160.511 301.402 155.728 299.674 151.565Z"/><path fill="#CD2A00" d="M289.391 144.696H256V200.348C258.848 200.348 261.695 199.261 263.869 197.087L297.26 163.696C300.444 160.512 301.402 155.729 299.673 151.566C297.956 147.403 293.891 144.696 289.391 144.696Z"/></svg>