<svg width="512" height="512" viewBox="0 0 512 512" fill="none" xmlns="http://www.w3.org/2000/svg">
<g clip-path="url(#clip0)">
<path d="M111.195 450.736C105.788 450.736 100.611 448.104 97.445 443.529C93.562 437.894 93.496 430.454 97.292 424.759L126.651 380.72L21.04 356.11C14.786 354.652 9.92303 349.73 8.53103 343.46C7.12803 337.189 9.45603 330.674 14.514 326.703L56.73 293.52L7.75803 239.213C3.34103 234.307 2.22103 227.231 4.90803 221.199C7.59503 215.167 13.566 211.251 20.169 211.251H20.18L93.311 211.332L89.711 157.77C89.287 151.363 92.571 145.28 98.163 142.12C103.755 138.96 110.662 139.291 115.937 142.962L159.241 173.145L139.346 69.6C138.127 63.291 140.64 56.84 145.808 53.018C150.975 49.2 157.882 48.667 163.55 51.669L211.032 76.743L240.728 9.92C243.414 3.889 249.397 0 256 0C262.603 0 268.586 3.889 271.272 9.92L300.968 76.742L348.45 51.668C354.106 48.661 361.025 49.193 366.192 53.017C371.359 56.841 373.872 63.291 372.654 69.601L352.759 173.147L396.063 142.966C401.338 139.283 408.247 138.957 413.837 142.128C419.429 145.288 422.714 151.38 422.289 157.787L418.689 211.333L491.82 211.252H491.831C498.434 211.252 504.406 215.168 507.092 221.2C509.779 227.232 508.658 234.291 504.242 239.197L455.27 293.512L497.486 326.699C502.544 330.669 504.872 337.187 503.469 343.458C502.077 349.729 497.215 354.652 490.96 356.109L394.997 378.475L425.846 424.76C429.621 430.416 429.588 437.797 425.759 443.421C421.941 449.045 415.066 451.792 408.441 450.366L256.13 417.729L114.947 450.308C113.697 450.595 112.446 450.736 111.195 450.736Z" fill="#FF9811"/>
<path d="M255.973 417.729L408.362 450.368C414.986 451.793 421.9 449.046 425.719 443.423C429.549 437.799 429.6 430.418 425.826 424.762L394.987 378.477L490.956 356.112C497.21 354.654 502.076 349.732 503.468 343.462C504.872 337.191 502.545 330.676 497.486 326.705L455.27 293.522L504.242 239.215C508.659 234.309 509.779 227.233 507.092 221.201C504.405 215.169 498.434 211.253 491.831 211.253H491.82L418.689 211.334L422.289 157.772C422.713 151.365 419.429 145.282 413.837 142.122C408.245 138.951 401.338 139.282 396.063 142.964L352.759 173.147L372.654 69.603C373.873 63.294 371.36 56.843 366.192 53.021C361.025 49.198 354.106 48.665 348.45 51.672L300.968 76.746L271.115 9.922C268.428 3.889 262.368 0 255.685 0V417.759L255.973 417.729Z" fill="#EE8700"/>
<path d="M345.077 290.372C341.466 281.876 331.529 277.928 323.012 281.523L272.393 302.959V205.684C272.393 196.457 264.912 188.976 255.685 188.976C246.458 188.976 238.977 196.457 238.977 205.684V302.958L188.683 281.524C179.358 277.584 168.507 282.738 165.955 293.028C163.953 301.103 168.85 309.36 176.507 312.612L238.976 339.134V495.293C238.976 504.52 246.457 512.001 255.684 512.001C264.911 512.001 272.392 504.52 272.392 495.293V339.4L336.222 312.284C344.719 308.673 348.678 298.867 345.077 290.372Z" fill="#CC7400"/>
</g>
<defs>
<clipPath id="clip0">
<rect width="512" height="512" fill="white"/>
</clipPath>
</defs>
</svg>
