<svg xmlns="http://www.w3.org/2000/svg" width="512" height="512" fill="none" viewBox="0 0 512 512"><path fill="#5F4D37" d="M445.217 200.348H411.826V333.913H445.217C482.1 333.913 512 304.013 512 267.13C512 230.247 482.1 200.348 445.217 200.348Z"/><path fill="#5F4D37" d="M66.783 200.348H100.174V333.913H66.783C29.9 333.913 0 304.013 0 267.13C0 230.247 29.9 200.348 66.783 200.348Z"/><path fill="#806749" d="M100.174 150.372L411.826 350.608H87.93H68.897C67.45 341.592 66.782 332.243 66.782 322.782V300.521V233.738V200.347V189.217C66.782 175.86 68.118 162.838 70.789 150.26H100.285H100.174V150.372Z"/><path fill="#5F4D37" d="M256 250.419V350.609H411.826L256 250.419Z"/><path fill="#FFDA44" d="M183.652 300.522C211.314 300.522 233.739 278.097 233.739 250.435C233.739 222.773 211.314 200.348 183.652 200.348C155.99 200.348 133.565 222.773 133.565 250.435C133.565 278.097 155.99 300.522 183.652 300.522Z"/><path fill="#ACABB1" d="M445.217 233.739V286.163L233.739 150.261H441.21C443.881 162.838 445.217 175.861 445.217 189.218V200.348V233.739Z"/><path fill="#C6C5CA" d="M411.826 350.609H443.103C437.426 389.788 419.618 425.183 393.684 453.009H393.573L255.444 406.706L87.9299 350.609H411.826Z"/><path fill="#C6C5CA" d="M441.21 150.261H233.739H100.397L256 98.282L388.452 54.094C414.72 79.805 433.419 112.974 441.21 150.261Z"/><path fill="#ACABB1" d="M255.443 406.483L393.572 452.563C392.348 453.899 391.123 455.234 389.788 456.57C355.506 490.852 308.313 512 256 512C201.572 512 152.487 489.071 118.094 452.23L255.443 406.483Z"/><path fill="#ACABB1" d="M388.452 54.094L256 98.282L123.548 54.094C157.718 20.591 204.355 0 256 0C307.645 0 354.282 20.591 388.452 54.094Z"/><path fill="#E0E0E2" d="M445.217 300.522V322.783C445.217 332.244 444.549 341.593 443.102 350.609H411.825L100.174 150.372V150.261H233.739L445.217 286.164V300.522Z"/><path fill="#E0E0E2" d="M70.79 150.261C78.581 112.974 97.28 79.805 123.548 54.094L256 98.282L100.397 150.261H100.286H70.79Z"/><path fill="#E0E0E2" d="M87.93 350.609L255.443 406.484L118.093 452.23C92.27 424.849 74.573 389.677 68.896 350.609H87.93Z"/></svg>