<svg width="512" height="512" viewBox="0 0 512 512" fill="none" xmlns="http://www.w3.org/2000/svg">
<g clip-path="url(#clip0)">
<path d="M408.661 92.193C408.66 92.192 406.646 88.499 406.646 88.498C377.224 35.546 319.928 0 255.985 0C162.144 0 85.711 75.309 83.485 168.671V168.793C83.485 169.294 83.485 169.795 83.474 170.296C83.463 171.053 83.485 171.799 83.485 172.522V495.305C83.485 504.525 90.96 512.001 100.181 512.001H211.485C334.674 512.001 428.528 411.508 428.528 294.958V172.522C428.529 145.291 421.947 117.218 408.661 92.193Z" fill="#806749"/>
<path d="M428.529 172.522V294.957C428.529 412.463 333.632 512 211.485 512H100.181C90.961 512 83.485 504.525 83.485 495.304V477.629C166.017 487.29 236.528 424.203 239.222 344.231C227.747 343.118 216.594 340.87 205.886 337.62C205.897 338.232 205.919 338.855 205.919 339.479C205.919 397.78 158.481 445.218 100.18 445.218C94.481 445.218 88.938 444.639 83.484 443.771V409.8C88.849 411.08 94.425 411.826 100.18 411.826C140.071 411.826 172.528 379.37 172.528 339.478C172.528 333.546 171.771 327.791 170.391 322.281C118.501 292.507 83.485 236.543 83.485 172.521C83.485 171.798 83.463 171.052 83.474 170.295C83.485 169.794 83.485 169.293 83.485 168.792V168.67C83.485 168.247 83.552 167.824 83.574 167.401C85.689 127.109 113.192 93.384 150.479 82.031C159.161 79.36 168.516 77.913 178.088 77.913C210.366 77.913 238.866 94.163 256.007 118.873V0C319.833 0 376.258 34.704 406.646 88.498C406.646 88.509 406.657 88.52 406.668 88.531C407.39 89.829 408.66 92.193 408.66 92.193C422.073 117.752 428.529 145.065 428.529 172.522Z" fill="#5F4D37"/>
<path d="M256.007 311.652C179.318 311.652 116.877 249.21 116.877 172.522C116.877 138.797 144.369 111.305 178.094 111.305C211.819 111.305 239.311 138.797 239.311 172.522C239.311 181.742 246.786 189.218 256.007 189.218C265.227 189.218 272.703 181.743 272.703 172.522C272.703 138.797 300.195 111.305 333.92 111.305C367.645 111.305 395.137 138.797 395.137 172.522C395.138 249.21 332.697 311.652 256.007 311.652Z" fill="white"/>
<path d="M395.138 172.522C395.138 138.797 367.646 111.305 333.921 111.305C300.196 111.305 272.704 138.797 272.704 172.522C272.704 181.742 265.229 189.218 256.008 189.218V311.653C332.697 311.652 395.138 249.21 395.138 172.522Z" fill="#E0E0E2"/>
<path d="M178.094 194.783C165.817 194.783 155.833 184.793 155.833 172.522C155.833 160.251 165.817 150.261 178.094 150.261C190.371 150.261 200.355 160.251 200.355 172.522C200.355 184.793 190.372 194.783 178.094 194.783Z" fill="#5F4D37"/>
<path d="M333.92 194.783C321.643 194.783 311.659 184.793 311.659 172.522C311.659 160.251 321.643 150.261 333.92 150.261C346.197 150.261 356.181 160.251 356.181 172.522C356.181 184.793 346.198 194.783 333.92 194.783Z" fill="#5F4D37"/>
<path d="M301.203 239.979L267.812 273.37C261.291 279.891 250.725 279.891 244.203 273.37L210.812 239.979C204.291 233.458 204.291 222.892 210.812 216.37C217.333 209.848 227.899 209.849 234.421 216.37L256.008 237.957L277.595 216.37C280.856 213.109 285.128 211.478 289.399 211.478C293.67 211.478 297.943 213.109 301.203 216.37C307.725 222.891 307.725 233.456 301.203 239.979Z" fill="#5F4D37"/>
</g>
<defs>
<clipPath id="clip0">
<rect width="512" height="512" fill="white"/>
</clipPath>
</defs>
</svg>
