<svg xmlns="http://www.w3.org/2000/svg" width="512" height="512" fill="none" viewBox="0 0 512 512"><path fill="#64C37D" d="M250.435 150.261C241.218 150.261 233.739 142.782 233.739 133.565C233.739 59.913 288.087 0 361.739 0C370.956 0 378.435 7.479 378.435 16.696C378.435 25.913 370.956 33.392 361.739 33.392C306.5 33.392 267.13 78.327 267.13 133.566C267.13 142.782 259.652 150.261 250.435 150.261Z"/><path fill="#FF9811" d="M311.652 111.304C292.32 111.304 273.686 114.192 256 119.302C238.313 114.192 219.68 111.304 200.348 111.304C89.699 111.304 0 201.002 0 311.652C0 422.301 89.699 512 200.348 512C219.68 512 238.313 509.112 256 504.002C273.686 509.112 292.32 512 311.652 512C422.301 512 512 422.301 512 311.652C512 201.002 422.301 111.304 311.652 111.304Z"/><path fill="#EE8700" d="M311.652 512C422.301 512 512 422.301 512 311.652C512 201.002 422.301 111.304 311.652 111.304C292.32 111.304 273.686 114.192 256 119.302V504.002C273.686 509.112 292.32 512 311.652 512Z"/><path fill="#FFDA44" d="M78.982 244.579C82.221 235.937 91.868 231.569 100.476 234.808L189.519 268.199C198.15 271.438 202.525 281.058 199.285 289.689C196.774 296.395 190.41 300.526 183.655 300.526C181.704 300.526 179.726 300.189 177.79 299.461L88.747 266.07C80.118 262.83 75.743 253.21 78.982 244.579Z"/><path fill="#FFDA44" d="M367.978 395.804L334.587 429.195C331.326 432.456 327.054 434.087 322.783 434.087C318.512 434.087 314.239 432.456 310.979 429.195L289.392 407.609L267.805 429.196C261.284 435.717 250.718 435.717 244.196 429.196L222.61 407.609L201.023 429.196C194.502 435.717 183.936 435.717 177.414 429.196L144.023 395.805C137.502 389.284 137.502 378.718 144.023 372.196C150.544 365.674 161.11 365.675 167.632 372.196L189.219 393.782L210.805 372.195C217.326 365.674 227.892 365.674 234.414 372.195L256 393.783L277.586 372.196C284.107 365.675 294.673 365.675 301.195 372.196L322.782 393.783L344.369 372.196C350.89 365.675 361.456 365.675 367.978 372.196C374.5 378.717 374.5 389.283 367.978 395.804Z"/><path fill="#FFDA44" d="M400.998 266.069L311.955 299.46C310.021 300.188 308.042 300.525 306.091 300.525C299.336 300.525 292.972 296.395 290.461 289.688C287.222 281.057 291.596 271.439 300.227 268.198L389.27 234.807C397.878 231.568 407.525 235.938 410.764 244.578C414.003 253.21 409.629 262.83 400.998 266.069Z"/></svg>