<svg width="512" height="512" viewBox="0 0 512 512" fill="none" xmlns="http://www.w3.org/2000/svg">
<g clip-path="url(#clip0)">
<path d="M105.741 233.739H46.9829L29.7349 212.179C23.9789 204.978 13.4639 203.815 6.2679 209.57C-0.933105 215.331 -2.1021 225.836 3.6589 233.037L17.5759 250.434L3.6589 267.831C-2.1021 275.032 -0.933105 285.537 6.2679 291.298C9.34389 293.76 13.0289 294.955 16.6859 294.955C21.5819 294.955 26.4359 292.808 29.7349 288.689L46.9829 267.129H105.741C105.741 267.13 105.741 233.739 105.741 233.739Z" fill="#806749"/>
<path d="M406.261 233.739H465.016L482.264 212.179C488.019 204.978 498.535 203.815 505.731 209.57C512.932 215.331 514.101 225.836 508.34 233.037L494.423 250.434L508.34 267.831C514.101 275.032 512.932 285.537 505.731 291.298C502.655 293.76 498.97 294.955 495.313 294.955C490.417 294.955 485.563 292.808 482.264 288.689L465.016 267.129H406.261V233.739Z" fill="#806749"/>
<path d="M272.697 161.392C272.697 152.172 265.222 144.696 256.001 144.696C246.781 144.696 239.305 152.171 239.305 161.392V495.303C239.305 504.523 246.78 511.999 256.001 511.999C265.221 511.999 272.697 504.524 272.697 495.303V161.392Z" fill="#806749"/>
<path d="M255.999 166.957C302.103 166.957 339.477 129.583 339.477 83.479H172.521C172.521 129.583 209.896 166.957 255.999 166.957Z" fill="#FF9811"/>
<path d="M256.001 166.957C302.104 166.956 339.478 129.582 339.478 83.479H256.001V166.957Z" fill="#EE8700"/>
<path d="M422.955 200.348C357.221 200.348 155.329 200.348 89.0441 200.348C79.8241 200.348 72.3501 207.823 72.3501 217.044C72.3501 247.004 72.3501 197.934 72.3501 267.131V283.827C72.3501 293.047 79.8231 300.523 89.0441 300.523H139.132V392.926C139.132 413.598 154.25 432.294 174.856 433.956C186.595 434.903 197.355 430.639 205.068 423.231C211.559 416.997 222.089 416.313 228.453 422.678C234.944 429.169 245.467 434.087 255.992 434.088C266.521 434.089 277.052 429.172 283.545 422.678C289.909 416.314 300.44 416.997 306.931 423.231C314.645 430.639 325.404 434.902 337.143 433.957C357.75 432.296 372.87 413.6 372.87 392.927V300.524H422.956C432.176 300.524 439.653 293.049 439.653 283.828C439.653 251.749 439.653 249.125 439.653 217.046C439.652 207.823 432.176 200.348 422.955 200.348Z" fill="#A258CD"/>
<path d="M306.932 423.23C314.646 430.638 325.405 434.901 337.144 433.956C357.751 432.295 372.871 413.599 372.871 392.926V300.522H422.957C432.177 300.522 439.654 293.047 439.654 283.826C439.654 251.747 439.654 249.123 439.654 217.044C439.654 207.824 432.178 200.348 422.957 200.348C390.056 200.348 322.785 200.348 256.003 200.348V434.086C266.02 434.087 277.058 429.17 283.552 422.676C289.914 416.311 300.44 416.995 306.932 423.23Z" fill="#933EC5"/>
<path d="M356.172 100.175C365.392 100.175 372.868 92.7 372.868 83.479C372.868 74.258 365.393 66.783 356.172 66.783H339.478V16.697C339.478 7.47698 332.002 0.000976562 322.781 0.000976562H189.217C179.997 0.000976562 172.523 7.47598 172.523 16.697V66.784H155.826C146.606 66.784 139.13 74.259 139.13 83.48C139.13 92.701 146.605 100.176 155.826 100.176C193.691 100.175 318.357 100.175 356.172 100.175Z" fill="#A258CD"/>
<path d="M356.172 66.783H339.478V16.697C339.478 7.47698 332.002 0.000976562 322.781 0.000976562H256V100.174C296.633 100.174 337.262 100.174 356.172 100.174C365.392 100.174 372.868 92.699 372.868 83.478C372.868 74.257 365.394 66.783 356.172 66.783Z" fill="#933EC5"/>
</g>
<defs>
<clipPath id="clip0">
<rect width="511.999" height="511.999" fill="white"/>
</clipPath>
</defs>
</svg>
