<svg xmlns="http://www.w3.org/2000/svg" width="513" height="513" fill="none" viewBox="0 0 513 513"><g clip-path="url(#clip0)"><path fill="#3E3D42" d="M94.722 511.94C85.509 511.94 78.04 504.471 78.04 495.258V433.791C78.04 427.463 81.621 421.68 87.285 418.859L166.306 379.499C174.553 375.392 184.568 378.747 188.675 386.994C192.782 395.241 189.428 405.256 181.18 409.364L111.404 444.119V495.259C111.404 504.471 103.935 511.94 94.722 511.94Z"/><path fill="#3E3D42" d="M16.67 411.552C13.965 411.552 11.224 410.894 8.683 409.505C0.598998 405.085 -2.371 394.95 2.047 386.866L41.565 314.578C44.781 308.697 51.206 305.311 57.871 305.982L142.331 314.473C151.497 315.395 158.182 323.573 157.26 332.74C156.338 341.906 148.176 348.593 138.992 347.669L65.535 340.283L31.321 402.869C28.293 408.411 22.572 411.552 16.67 411.552Z"/><path fill="#3E3D42" d="M16.67 294.779C13.965 294.779 11.224 294.121 8.683 292.732C0.598998 288.312 -2.371 278.177 2.047 270.093L41.565 197.805C43.747 193.816 47.463 190.889 51.852 189.702C56.242 188.516 60.926 189.174 64.819 191.523L158.483 248.023C166.372 252.782 168.909 263.036 164.15 270.924C159.393 278.812 149.141 281.351 141.249 276.591L62.491 229.081L31.323 286.096C28.293 291.638 22.572 294.779 16.67 294.779Z"/><path fill="#3E3D42" d="M195.043 228.438C190.758 228.438 186.476 226.798 183.216 223.52L77.74 117.478C71.271 110.973 71.267 100.466 77.732 93.9581L166.107 4.9881C172.601 -1.5489 183.161 -1.5839 189.7 4.9091C196.236 11.4021 196.272 21.9631 189.778 28.5001L113.088 105.706L206.869 199.992C213.367 206.525 213.338 217.086 206.806 223.583C203.551 226.821 199.296 228.438 195.043 228.438Z"/><path fill="#3E3D42" d="M417.238 511.94C408.025 511.94 400.556 504.471 400.556 495.258V444.118L330.78 409.363C322.533 405.255 319.177 395.24 323.285 386.993C327.393 378.747 337.409 375.391 345.654 379.498L424.675 418.858C430.339 421.679 433.92 427.462 433.92 433.79V495.257C433.92 504.471 426.451 511.94 417.238 511.94Z"/><path fill="#3E3D42" d="M495.331 411.552C489.428 411.552 483.709 408.412 480.678 402.869L446.464 340.283L373.007 347.669C363.832 348.593 355.66 341.905 354.739 332.74C353.817 323.573 360.502 315.394 369.668 314.473L454.128 305.982C460.794 305.308 467.219 308.698 470.434 314.578L509.952 386.866C514.372 394.95 511.4 405.086 503.316 409.505C500.777 410.892 498.035 411.552 495.331 411.552Z"/><path fill="#3E3D42" d="M495.331 294.779C489.428 294.779 483.709 291.639 480.678 286.096L449.51 229.081L370.752 276.591C362.86 281.349 352.61 278.812 347.851 270.924C343.092 263.035 345.629 252.782 353.518 248.023L447.182 191.523C451.077 189.174 455.762 188.518 460.149 189.702C464.539 190.888 468.254 193.815 470.436 197.805L509.954 270.093C514.374 278.177 511.402 288.313 503.318 292.732C500.777 294.12 498.035 294.779 495.331 294.779Z"/><path fill="#3E3D42" d="M316.959 228.438C312.704 228.438 308.45 226.821 305.195 223.584C298.662 217.087 298.635 206.525 305.132 199.993L398.913 105.707L322.223 28.5002C315.729 21.9642 315.765 11.4012 322.301 4.90919C328.838 -1.58181 339.399 -1.54781 345.894 4.98819L434.269 93.9582C440.734 100.466 440.732 110.973 434.261 117.478L328.785 223.52C325.527 226.797 321.243 228.438 316.959 228.438Z"/><path fill="#5C5C5C" d="M256.209 79.0239C219.357 79.0239 189.482 108.899 189.482 145.751C189.482 182.603 219.357 212.478 256.209 212.478C293.061 212.478 322.936 182.603 322.936 145.751C322.936 108.899 293.062 79.0239 256.209 79.0239Z"/><path fill="#3E3D42" d="M256.209 79.0239V212.479C293.061 212.479 322.936 182.604 322.936 145.752C322.936 108.9 293.062 79.0239 256.209 79.0239Z"/><path fill="#787680" d="M256.209 179.115C182.504 179.115 122.754 238.865 122.754 312.57C122.754 386.275 182.504 446.025 256.209 446.025C329.914 446.025 389.664 386.275 389.664 312.57C389.664 238.864 329.914 179.115 256.209 179.115Z"/><path fill="#57565C" d="M256.209 179.115V446.024C329.914 446.024 389.664 386.274 389.664 312.569C389.664 238.864 329.914 179.115 256.209 179.115Z"/><path fill="#ED539D" d="M255.788 378.156C237.95 378.156 221.193 371.223 208.604 358.635C202.089 352.12 202.089 341.558 208.604 335.044C215.118 328.529 225.681 328.529 232.195 335.044C238.482 341.331 246.862 344.794 255.788 344.794C264.714 344.794 273.093 341.332 279.379 335.045C285.893 328.53 296.456 328.53 302.97 335.045C309.485 341.56 309.485 352.122 302.97 358.636C290.384 371.223 273.626 378.156 255.788 378.156Z"/><path fill="#EA348B" d="M279.379 335.043C273.191 341.231 264.977 344.674 256.209 344.782V378.146C273.89 378.037 290.482 371.124 302.97 358.635C309.485 352.12 309.485 341.558 302.97 335.044C296.457 328.529 285.893 328.529 279.379 335.043Z"/></g><defs><clipPath id="clip0"><rect width="512.002" height="512.002" fill="#fff"/></clipPath></defs></svg>