<svg xmlns="http://www.w3.org/2000/svg" width="512" height="512" fill="none" viewBox="0 0 512 512"><g clip-path="url(#clip0)"><path fill="#933EC5" d="M422.825 444.215L271.785 11.866C269.445 5.14502 263.116 0.697021 256 0.697021C248.883 0.697021 242.554 5.12102 240.215 11.842L89.697 444.215H422.825Z"/><path fill="#6D2C93" d="M255.724 444.215H422.826L271.785 11.8661C269.499 5.29907 263.403 0.913064 256.485 0.716064C256.219 0.768064 255.964 0.794064 255.724 0.791064V444.215Z"/><path fill="#3E3D42" d="M101.335 410.787H256.241H411.147L399.469 377.36L387.792 343.933H256.2H124.608L112.971 377.36L101.335 410.787Z"/><path fill="#1D1D1F" d="M387.792 343.933H256.2H255.724V410.787H256.241H411.147L399.469 377.36L387.792 343.933Z"/><path fill="#A258CD" d="M495.147 410.787H410.68C368.748 410.787 62.057 410.787 16.853 410.787C3.45098 410.787 -4.67102 425.955 2.91698 437.002C32.268 479.732 137.533 511.246 255.999 511.246C374.466 511.246 479.731 479.702 509.081 436.972C516.671 425.927 508.549 410.787 495.147 410.787Z"/><path fill="#933EC5" d="M495.147 410.787H410.68H255.724V511.302C374.948 511.253 479.479 479.7 508.806 437.003C516.394 425.956 508.549 410.787 495.147 410.787Z"/><path fill="#FFDA44" d="M311.436 410.787H255.724H200.012V377.36V343.933H255.724H311.436V377.36V410.787Z"/><path fill="#EEBF00" d="M311.436 410.787V377.36V343.933H255.724V410.787H311.436Z"/></g><defs><clipPath id="clip0"><rect width="511.999" height="511.999" fill="#fff"/></clipPath></defs></svg>